<?xml version="1.0" encoding="UTF-8" standalone="no"?>
<!DOCTYPE svg PUBLIC "-//W3C//DTD SVG 1.1//EN"
 "http://www.w3.org/Graphics/SVG/1.1/DTD/svg11.dtd">
<!-- Generated by graphviz version 10.0.1 (20240210.2158)
 -->
<!-- Pages: 1 -->
<svg width="420pt" height="1247pt"
 viewBox="0.00 0.00 420.00 1247.00" xmlns="http://www.w3.org/2000/svg" xmlns:xlink="http://www.w3.org/1999/xlink">
<g id="graph0" class="graph" transform="scale(1 1) rotate(0) translate(4 1243)">
<polygon fill="white" stroke="none" points="-4,4 -4,-1243 416,-1243 416,4 -4,4"/>
<g id="clust1" class="cluster">
<title>cluster_main</title>
<polygon fill="none" stroke="black" points="0.14,0.2 0.14,-1238.8 412.14,-1238.8 412.14,0.2 0.14,0.2"/>
<text text-anchor="start" x="44.52" y="-1216.8" font-family="Times New Roman,serif" font-size="20.00"> </text>
<text text-anchor="start" x="49.77" y="-1216.8" font-family="Times New Roman,serif" font-weight="bold" font-size="20.00">Блок&#45;схема для функції int main()</text>
<text text-anchor="start" x="362.52" y="-1216.8" font-family="Times New Roman,serif" font-size="20.00"> </text>
</g>
<!-- node0 -->
<g id="node1" class="node">
<title>node0</title>
<path fill="none" stroke="black" stroke-width="2" d="M164.14,-1125.8C164.14,-1125.8 248.14,-1125.8 248.14,-1125.8 254.14,-1125.8 260.14,-1131.8 260.14,-1137.8 260.14,-1137.8 260.14,-1149.8 260.14,-1149.8 260.14,-1155.8 254.14,-1161.8 248.14,-1161.8 248.14,-1161.8 164.14,-1161.8 164.14,-1161.8 158.14,-1161.8 152.14,-1155.8 152.14,-1149.8 152.14,-1149.8 152.14,-1137.8 152.14,-1137.8 152.14,-1131.8 158.14,-1125.8 164.14,-1125.8"/>
<text text-anchor="middle" x="205.77" y="-1137.22" font-family="Times New Roman,serif" font-size="16.00">Start</text>
</g>
<!-- node1 -->
<g id="node2" class="node">
<title>node1</title>
<polygon fill="none" stroke="black" stroke-width="2" points="260.14,-1071.8 152.14,-1071.8 152.14,-999.8 260.14,-999.8 260.14,-1071.8"/>
<text text-anchor="middle" x="206.14" y="-1037.85" font-family="Times New Roman,serif" font-size="16.00">int i, int sum =</text>
<text text-anchor="middle" x="206.14" y="-1020.6" font-family="Times New Roman,serif" font-size="16.00">0, int number</text>
</g>
<!-- node0&#45;&gt;node1 -->
<g id="edge1" class="edge">
<title>node0:s&#45;&gt;node1:n</title>
<path fill="none" stroke="black" stroke-width="2" d="M206.14,-1125.8C206.14,-1125.8 206.14,-1100.56 206.14,-1084.59"/>
<polygon fill="black" stroke="black" stroke-width="2" points="209.64,-1084.82 206.14,-1074.82 202.64,-1084.82 209.64,-1084.82"/>
</g>
<!-- node2 -->
<g id="node3" class="node">
<title>node2</title>
<polygon fill="none" stroke="black" stroke-width="2" points="280.79,-963.8 162.05,-963.8 131.5,-891.8 250.24,-891.8 280.79,-963.8"/>
<text text-anchor="middle" x="206.14" y="-938.47" font-family="Times New Roman,serif" font-size="16.00">Вивести:</text>
<text text-anchor="middle" x="206.14" y="-921.22" font-family="Times New Roman,serif" font-size="16.00">&quot;Введіть 10</text>
<text text-anchor="middle" x="206.14" y="-903.97" font-family="Times New Roman,serif" font-size="16.00">чисел: &quot;</text>
</g>
<!-- node1&#45;&gt;node2 -->
<g id="edge2" class="edge">
<title>node1:s&#45;&gt;node2:n</title>
<path fill="none" stroke="black" stroke-width="2" d="M206.14,-999.8C206.14,-999.8 206.14,-987.46 206.14,-977.43"/>
<polygon fill="black" stroke="black" stroke-width="2" points="209.64,-977.82 206.14,-967.82 202.64,-977.82 209.64,-977.82"/>
</g>
<!-- node3 -->
<g id="node4" class="node">
<title>node3</title>
<polygon fill="none" stroke="black" stroke-width="2" points="278.14,-819.8 242.14,-855.8 170.14,-855.8 134.14,-819.8 170.14,-783.8 242.14,-783.8 278.14,-819.8"/>
<text text-anchor="middle" x="206.14" y="-821.85" font-family="Times New Roman,serif" font-size="16.00">for (i = 0; i &lt;</text>
<text text-anchor="middle" x="206.14" y="-804.6" font-family="Times New Roman,serif" font-size="16.00">10; i++)</text>
</g>
<!-- node2&#45;&gt;node3 -->
<g id="edge3" class="edge">
<title>node2:s&#45;&gt;node3:n</title>
<path fill="none" stroke="black" stroke-width="2" d="M206.14,-890.8C206.14,-890.8 206.14,-879.12 206.14,-869.46"/>
<polygon fill="black" stroke="black" stroke-width="2" points="209.64,-869.82 206.14,-859.82 202.64,-869.82 209.64,-869.82"/>
</g>
<!-- node4 -->
<g id="node5" class="node">
<title>node4</title>
<polygon fill="none" stroke="black" stroke-width="2" points="280.79,-747.8 162.05,-747.8 131.5,-675.8 250.24,-675.8 280.79,-747.8"/>
<text text-anchor="middle" x="206.14" y="-722.47" font-family="Times New Roman,serif" font-size="16.00">Вивести:</text>
<text text-anchor="middle" x="206.14" y="-705.22" font-family="Times New Roman,serif" font-size="16.00">&quot;Введіть число:</text>
<text text-anchor="middle" x="206.14" y="-687.97" font-family="Times New Roman,serif" font-size="16.00">&quot;, i + 1</text>
</g>
<!-- node3&#45;&gt;node4 -->
<g id="edge4" class="edge">
<title>node3:s&#45;&gt;node4:n</title>
<path fill="none" stroke="black" stroke-width="2" d="M206.14,-782.8C206.14,-782.8 206.14,-771.12 206.14,-761.46"/>
<polygon fill="black" stroke="black" stroke-width="2" points="209.64,-761.82 206.14,-751.82 202.64,-761.82 209.64,-761.82"/>
</g>
<!-- node10 -->
<!-- node3&#45;&gt;node10 -->
<g id="edge11" class="edge">
<title>node3:e&#45;&gt;node10:w</title>
<path fill="none" stroke="black" stroke-width="2" d="M279.14,-819.8C279.14,-819.8 350.14,-819.8 350.14,-819.8"/>
</g>
<!-- node5 -->
<g id="node6" class="node">
<title>node5</title>
<polygon fill="none" stroke="black" stroke-width="2" points="280.79,-639.8 162.05,-639.8 131.5,-567.8 250.24,-567.8 280.79,-639.8"/>
<text text-anchor="middle" x="206.14" y="-605.85" font-family="Times New Roman,serif" font-size="16.00">Ввести: &quot;%d&quot;,</text>
<text text-anchor="middle" x="206.14" y="-588.6" font-family="Times New Roman,serif" font-size="16.00">&amp;number</text>
</g>
<!-- node4&#45;&gt;node5 -->
<g id="edge5" class="edge">
<title>node4:s&#45;&gt;node5:n</title>
<path fill="none" stroke="black" stroke-width="2" d="M206.14,-674.8C206.14,-674.8 206.14,-663.12 206.14,-653.46"/>
<polygon fill="black" stroke="black" stroke-width="2" points="209.64,-653.82 206.14,-643.82 202.64,-653.82 209.64,-653.82"/>
</g>
<!-- node6 -->
<g id="node7" class="node">
<title>node6</title>
<polygon fill="none" stroke="black" stroke-width="2" points="260.14,-531.8 152.14,-531.8 152.14,-459.8 260.14,-459.8 260.14,-531.8"/>
<text text-anchor="middle" x="206.14" y="-489.22" font-family="Times New Roman,serif" font-size="16.00">sum += number</text>
</g>
<!-- node5&#45;&gt;node6 -->
<g id="edge6" class="edge">
<title>node5:s&#45;&gt;node6:n</title>
<path fill="none" stroke="black" stroke-width="2" d="M206.14,-566.8C206.14,-566.8 206.14,-554.46 206.14,-544.43"/>
<polygon fill="black" stroke="black" stroke-width="2" points="209.64,-544.82 206.14,-534.82 202.64,-544.82 209.64,-544.82"/>
</g>
<!-- node7 -->
<!-- node6&#45;&gt;node7 -->
<g id="edge7" class="edge">
<title>node6:s&#45;&gt;node7</title>
<path fill="none" stroke="black" stroke-width="2" d="M206.14,-459.8C206.14,-459.8 206.14,-396.52 206.14,-388.6"/>
</g>
<!-- node8 -->
<!-- node7&#45;&gt;node8 -->
<g id="edge8" class="edge">
<title>node7:w&#45;&gt;node8:e</title>
<path fill="none" stroke="black" stroke-width="2" d="M206.14,-387.8C206.14,-387.8 62.14,-387.8 62.14,-387.8"/>
</g>
<!-- node9 -->
<!-- node8&#45;&gt;node9 -->
<g id="edge9" class="edge">
<title>node8:n&#45;&gt;node9:s</title>
<path fill="none" stroke="black" stroke-width="2" d="M62.14,-387.8C62.14,-387.8 62.14,-819.8 62.14,-819.8"/>
</g>
<!-- node9&#45;&gt;node3 -->
<g id="edge10" class="edge">
<title>node9:e&#45;&gt;node3:w</title>
<path fill="none" stroke="black" stroke-width="2" d="M62.14,-819.8C62.14,-819.8 99.63,-819.8 120.12,-819.8"/>
<polygon fill="black" stroke="black" stroke-width="2" points="120.12,-823.3 130.12,-819.8 120.12,-816.3 120.12,-823.3"/>
</g>
<!-- node12 -->
<!-- node10&#45;&gt;node12 -->
<g id="edge12" class="edge">
<title>node10:s&#45;&gt;node12:n</title>
<path fill="none" stroke="black" stroke-width="2" d="M350.14,-819.8C350.14,-819.8 350.14,-333.8 350.14,-333.8"/>
</g>
<!-- node11 -->
<!-- node13 -->
<g id="node14" class="node">
<title>node13</title>
<polygon fill="none" stroke="black" stroke-width="2" points="280.79,-315.8 162.05,-315.8 131.5,-243.8 250.24,-243.8 280.79,-315.8"/>
<text text-anchor="middle" x="206.14" y="-290.47" font-family="Times New Roman,serif" font-size="16.00">Вивести: &quot;Сума</text>
<text text-anchor="middle" x="206.14" y="-273.22" font-family="Times New Roman,serif" font-size="16.00">введених чисел:</text>
<text text-anchor="middle" x="206.14" y="-255.97" font-family="Times New Roman,serif" font-size="16.00">&quot;, sum</text>
</g>
<!-- node11&#45;&gt;node13 -->
<g id="edge14" class="edge">
<title>node11:s&#45;&gt;node13:n</title>
<path fill="none" stroke="black" stroke-width="2" d="M206.14,-333.8C206.14,-333.8 206.14,-331.97 206.14,-329.51"/>
<polygon fill="black" stroke="black" stroke-width="2" points="209.64,-329.82 206.14,-319.82 202.64,-329.82 209.64,-329.82"/>
</g>
<!-- node12&#45;&gt;node11 -->
<g id="edge13" class="edge">
<title>node12:w&#45;&gt;node11:e</title>
<path fill="none" stroke="black" stroke-width="2" d="M350.14,-333.8C350.14,-333.8 206.14,-333.8 206.14,-333.8"/>
</g>
<!-- node14 -->
<g id="node15" class="node">
<title>node14</title>
<polygon fill="none" stroke="black" stroke-width="2" points="260.14,-207.8 152.14,-207.8 152.14,-135.8 260.14,-135.8 260.14,-207.8"/>
<text text-anchor="middle" x="206.14" y="-165.22" font-family="Times New Roman,serif" font-size="16.00">return 0</text>
</g>
<!-- node13&#45;&gt;node14 -->
<g id="edge15" class="edge">
<title>node13:s&#45;&gt;node14:n</title>
<path fill="none" stroke="black" stroke-width="2" d="M206.14,-242.8C206.14,-242.8 206.14,-230.46 206.14,-220.43"/>
<polygon fill="black" stroke="black" stroke-width="2" points="209.64,-220.82 206.14,-210.82 202.64,-220.82 209.64,-220.82"/>
</g>
<!-- node15 -->
<g id="node16" class="node">
<title>node15</title>
<path fill="none" stroke="black" stroke-width="2" d="M164.14,-45.8C164.14,-45.8 248.14,-45.8 248.14,-45.8 254.14,-45.8 260.14,-51.8 260.14,-57.8 260.14,-57.8 260.14,-69.8 260.14,-69.8 260.14,-75.8 254.14,-81.8 248.14,-81.8 248.14,-81.8 164.14,-81.8 164.14,-81.8 158.14,-81.8 152.14,-75.8 152.14,-69.8 152.14,-69.8 152.14,-57.8 152.14,-57.8 152.14,-51.8 158.14,-45.8 164.14,-45.8"/>
<text text-anchor="middle" x="206.02" y="-57.22" font-family="Times New Roman,serif" font-size="16.00">End</text>
</g>
<!-- node14&#45;&gt;node15 -->
<g id="edge16" class="edge">
<title>node14:s&#45;&gt;node15:n</title>
<path fill="none" stroke="black" stroke-width="2" d="M206.14,-135.8C206.14,-135.8 206.14,-110.56 206.14,-94.59"/>
<polygon fill="black" stroke="black" stroke-width="2" points="209.64,-94.82 206.14,-84.82 202.64,-94.82 209.64,-94.82"/>
</g>
</g>
</svg>
