<?xml version="1.0" encoding="UTF-8" standalone="no"?>
<!DOCTYPE svg PUBLIC "-//W3C//DTD SVG 1.1//EN"
 "http://www.w3.org/Graphics/SVG/1.1/DTD/svg11.dtd">
<!-- Generated by graphviz version 10.0.1 (20240210.2158)
 -->
<!-- Pages: 1 -->
<svg width="420pt" height="1139pt"
 viewBox="0.00 0.00 420.00 1139.00" xmlns="http://www.w3.org/2000/svg" xmlns:xlink="http://www.w3.org/1999/xlink">
<g id="graph0" class="graph" transform="scale(1 1) rotate(0) translate(4 1135)">
<polygon fill="white" stroke="none" points="-4,4 -4,-1135 416,-1135 416,4 -4,4"/>
<g id="clust1" class="cluster">
<title>cluster_main</title>
<polygon fill="none" stroke="black" points="0.14,0.2 0.14,-1130.8 412.14,-1130.8 412.14,0.2 0.14,0.2"/>
<text text-anchor="start" x="44.52" y="-1108.8" font-family="Times New Roman,serif" font-size="20.00"> </text>
<text text-anchor="start" x="49.77" y="-1108.8" font-family="Times New Roman,serif" font-weight="bold" font-size="20.00">Блок&#45;схема для функції int main()</text>
<text text-anchor="start" x="362.52" y="-1108.8" font-family="Times New Roman,serif" font-size="20.00"> </text>
</g>
<!-- node0 -->
<g id="node1" class="node">
<title>node0</title>
<path fill="none" stroke="black" stroke-width="2" d="M164.14,-1017.8C164.14,-1017.8 248.14,-1017.8 248.14,-1017.8 254.14,-1017.8 260.14,-1023.8 260.14,-1029.8 260.14,-1029.8 260.14,-1041.8 260.14,-1041.8 260.14,-1047.8 254.14,-1053.8 248.14,-1053.8 248.14,-1053.8 164.14,-1053.8 164.14,-1053.8 158.14,-1053.8 152.14,-1047.8 152.14,-1041.8 152.14,-1041.8 152.14,-1029.8 152.14,-1029.8 152.14,-1023.8 158.14,-1017.8 164.14,-1017.8"/>
<text text-anchor="middle" x="206.14" y="-1029.22" font-family="Times New Roman,serif" font-size="16.00">Початок</text>
</g>
<!-- node1 -->
<g id="node2" class="node">
<title>node1</title>
<polygon fill="none" stroke="black" stroke-width="2" points="260.14,-963.8 152.14,-963.8 152.14,-891.8 260.14,-891.8 260.14,-963.8"/>
<text text-anchor="middle" x="206.14" y="-929.85" font-family="Times New Roman,serif" font-size="16.00">int i, int sum =</text>
<text text-anchor="middle" x="206.14" y="-912.6" font-family="Times New Roman,serif" font-size="16.00">0, int number</text>
</g>
<!-- node0&#45;&gt;node1 -->
<g id="edge1" class="edge">
<title>node0:s&#45;&gt;node1:n</title>
<path fill="none" stroke="black" stroke-width="2" d="M206.14,-1017.8C206.14,-1017.8 206.14,-992.56 206.14,-976.59"/>
<polygon fill="black" stroke="black" stroke-width="2" points="209.64,-976.82 206.14,-966.82 202.64,-976.82 209.64,-976.82"/>
</g>
<!-- node2 -->
<g id="node3" class="node">
<title>node2</title>
<polygon fill="none" stroke="black" stroke-width="2" points="280.79,-855.8 162.05,-855.8 131.5,-783.8 250.24,-783.8 280.79,-855.8"/>
<text text-anchor="middle" x="206.14" y="-830.47" font-family="Times New Roman,serif" font-size="16.00">Вивести:</text>
<text text-anchor="middle" x="206.14" y="-813.22" font-family="Times New Roman,serif" font-size="16.00">&quot;Введіть 10</text>
<text text-anchor="middle" x="206.14" y="-795.97" font-family="Times New Roman,serif" font-size="16.00">чисел: &quot;</text>
</g>
<!-- node1&#45;&gt;node2 -->
<g id="edge2" class="edge">
<title>node1:s&#45;&gt;node2:n</title>
<path fill="none" stroke="black" stroke-width="2" d="M206.14,-891.8C206.14,-891.8 206.14,-879.46 206.14,-869.43"/>
<polygon fill="black" stroke="black" stroke-width="2" points="209.64,-869.82 206.14,-859.82 202.64,-869.82 209.64,-869.82"/>
</g>
<!-- node3 -->
<g id="node4" class="node">
<title>node3</title>
<polygon fill="none" stroke="black" stroke-width="2" points="278.14,-711.8 242.14,-747.8 170.14,-747.8 134.14,-711.8 170.14,-675.8 242.14,-675.8 278.14,-711.8"/>
<text text-anchor="middle" x="206.14" y="-713.85" font-family="Times New Roman,serif" font-size="16.00">for (i = 0; i &lt;</text>
<text text-anchor="middle" x="206.14" y="-696.6" font-family="Times New Roman,serif" font-size="16.00">10; i++)</text>
</g>
<!-- node2&#45;&gt;node3 -->
<g id="edge3" class="edge">
<title>node2:s&#45;&gt;node3:n</title>
<path fill="none" stroke="black" stroke-width="2" d="M206.14,-782.8C206.14,-782.8 206.14,-771.12 206.14,-761.46"/>
<polygon fill="black" stroke="black" stroke-width="2" points="209.64,-761.82 206.14,-751.82 202.64,-761.82 209.64,-761.82"/>
</g>
<!-- node4 -->
<g id="node5" class="node">
<title>node4</title>
<polygon fill="none" stroke="black" stroke-width="2" points="280.79,-639.8 162.05,-639.8 131.5,-567.8 250.24,-567.8 280.79,-639.8"/>
<text text-anchor="middle" x="206.14" y="-614.47" font-family="Times New Roman,serif" font-size="16.00">Вивести:</text>
<text text-anchor="middle" x="206.14" y="-597.22" font-family="Times New Roman,serif" font-size="16.00">&quot;Введіть число:</text>
<text text-anchor="middle" x="206.14" y="-579.97" font-family="Times New Roman,serif" font-size="16.00">&quot;, i + 1</text>
</g>
<!-- node3&#45;&gt;node4 -->
<g id="edge4" class="edge">
<title>node3:s&#45;&gt;node4:n</title>
<path fill="none" stroke="black" stroke-width="2" d="M206.14,-674.8C206.14,-674.8 206.14,-663.12 206.14,-653.46"/>
<polygon fill="black" stroke="black" stroke-width="2" points="209.64,-653.82 206.14,-643.82 202.64,-653.82 209.64,-653.82"/>
</g>
<!-- node10 -->
<!-- node3&#45;&gt;node10 -->
<g id="edge11" class="edge">
<title>node3:e&#45;&gt;node10:w</title>
<path fill="none" stroke="black" stroke-width="2" d="M279.14,-711.8C279.14,-711.8 350.14,-711.8 350.14,-711.8"/>
</g>
<!-- node5 -->
<g id="node6" class="node">
<title>node5</title>
<polygon fill="none" stroke="black" stroke-width="2" points="280.79,-531.8 162.05,-531.8 131.5,-459.8 250.24,-459.8 280.79,-531.8"/>
<text text-anchor="middle" x="206.14" y="-497.85" font-family="Times New Roman,serif" font-size="16.00">Ввести: &quot;%d&quot;,</text>
<text text-anchor="middle" x="206.14" y="-480.6" font-family="Times New Roman,serif" font-size="16.00">&amp;number</text>
</g>
<!-- node4&#45;&gt;node5 -->
<g id="edge5" class="edge">
<title>node4:s&#45;&gt;node5:n</title>
<path fill="none" stroke="black" stroke-width="2" d="M206.14,-566.8C206.14,-566.8 206.14,-555.12 206.14,-545.46"/>
<polygon fill="black" stroke="black" stroke-width="2" points="209.64,-545.82 206.14,-535.82 202.64,-545.82 209.64,-545.82"/>
</g>
<!-- node6 -->
<g id="node7" class="node">
<title>node6</title>
<polygon fill="none" stroke="black" stroke-width="2" points="260.14,-423.8 152.14,-423.8 152.14,-351.8 260.14,-351.8 260.14,-423.8"/>
<text text-anchor="middle" x="206.14" y="-381.22" font-family="Times New Roman,serif" font-size="16.00">sum += number</text>
</g>
<!-- node5&#45;&gt;node6 -->
<g id="edge6" class="edge">
<title>node5:s&#45;&gt;node6:n</title>
<path fill="none" stroke="black" stroke-width="2" d="M206.14,-458.8C206.14,-458.8 206.14,-446.46 206.14,-436.43"/>
<polygon fill="black" stroke="black" stroke-width="2" points="209.64,-436.82 206.14,-426.82 202.64,-436.82 209.64,-436.82"/>
</g>
<!-- node7 -->
<!-- node6&#45;&gt;node7 -->
<g id="edge7" class="edge">
<title>node6:s&#45;&gt;node7</title>
<path fill="none" stroke="black" stroke-width="2" d="M206.14,-351.8C206.14,-351.8 206.14,-288.52 206.14,-280.6"/>
</g>
<!-- node8 -->
<!-- node7&#45;&gt;node8 -->
<g id="edge8" class="edge">
<title>node7:w&#45;&gt;node8:e</title>
<path fill="none" stroke="black" stroke-width="2" d="M206.14,-279.8C206.14,-279.8 62.14,-279.8 62.14,-279.8"/>
</g>
<!-- node9 -->
<!-- node8&#45;&gt;node9 -->
<g id="edge9" class="edge">
<title>node8:n&#45;&gt;node9:s</title>
<path fill="none" stroke="black" stroke-width="2" d="M62.14,-279.8C62.14,-279.8 62.14,-711.8 62.14,-711.8"/>
</g>
<!-- node9&#45;&gt;node3 -->
<g id="edge10" class="edge">
<title>node9:e&#45;&gt;node3:w</title>
<path fill="none" stroke="black" stroke-width="2" d="M62.14,-711.8C62.14,-711.8 99.63,-711.8 120.12,-711.8"/>
<polygon fill="black" stroke="black" stroke-width="2" points="120.12,-715.3 130.12,-711.8 120.12,-708.3 120.12,-715.3"/>
</g>
<!-- node12 -->
<!-- node10&#45;&gt;node12 -->
<g id="edge12" class="edge">
<title>node10:s&#45;&gt;node12:n</title>
<path fill="none" stroke="black" stroke-width="2" d="M350.14,-711.8C350.14,-711.8 350.14,-225.8 350.14,-225.8"/>
</g>
<!-- node11 -->
<!-- node13 -->
<g id="node14" class="node">
<title>node13</title>
<polygon fill="none" stroke="black" stroke-width="2" points="280.79,-207.8 162.05,-207.8 131.5,-135.8 250.24,-135.8 280.79,-207.8"/>
<text text-anchor="middle" x="206.14" y="-182.47" font-family="Times New Roman,serif" font-size="16.00">Вивести: &quot;Сума</text>
<text text-anchor="middle" x="206.14" y="-165.22" font-family="Times New Roman,serif" font-size="16.00">введених чисел:</text>
<text text-anchor="middle" x="206.14" y="-147.97" font-family="Times New Roman,serif" font-size="16.00">&quot;, sum</text>
</g>
<!-- node11&#45;&gt;node13 -->
<g id="edge14" class="edge">
<title>node11:s&#45;&gt;node13:n</title>
<path fill="none" stroke="black" stroke-width="2" d="M206.14,-225.8C206.14,-225.8 206.14,-223.97 206.14,-221.51"/>
<polygon fill="black" stroke="black" stroke-width="2" points="209.64,-221.82 206.14,-211.82 202.64,-221.82 209.64,-221.82"/>
</g>
<!-- node12&#45;&gt;node11 -->
<g id="edge13" class="edge">
<title>node12:w&#45;&gt;node11:e</title>
<path fill="none" stroke="black" stroke-width="2" d="M350.14,-225.8C350.14,-225.8 206.14,-225.8 206.14,-225.8"/>
</g>
<!-- node14 -->
<g id="node15" class="node">
<title>node14</title>
<path fill="none" stroke="black" stroke-width="2" d="M164.14,-45.8C164.14,-45.8 248.14,-45.8 248.14,-45.8 254.14,-45.8 260.14,-51.8 260.14,-57.8 260.14,-57.8 260.14,-69.8 260.14,-69.8 260.14,-75.8 254.14,-81.8 248.14,-81.8 248.14,-81.8 164.14,-81.8 164.14,-81.8 158.14,-81.8 152.14,-75.8 152.14,-69.8 152.14,-69.8 152.14,-57.8 152.14,-57.8 152.14,-51.8 158.14,-45.8 164.14,-45.8"/>
<text text-anchor="middle" x="206.02" y="-57.22" font-family="Times New Roman,serif" font-size="16.00">Кінець</text>
</g>
<!-- node13&#45;&gt;node14 -->
<g id="edge15" class="edge">
<title>node13:s&#45;&gt;node14:n</title>
<path fill="none" stroke="black" stroke-width="2" d="M206.14,-134.8C206.14,-134.8 206.14,-110.31 206.14,-94.63"/>
<polygon fill="black" stroke="black" stroke-width="2" points="209.64,-94.82 206.14,-84.82 202.64,-94.82 209.64,-94.82"/>
</g>
</g>
</svg>
